<svg xmlns="http://www.w3.org/2000/svg" version="1.1" xmlns:xlink="http://www.w3.org/1999/xlink" xmlns:svgjs="http://svgjs.dev/svgjs" width="2000" height="424" viewBox="0 0 2000 424"><g transform="matrix(1,0,0,1,-1.2121212121212466,-0.21687241344710628)"><svg viewBox="0 0 396 84" data-background-color="#ffffff" preserveAspectRatio="xMidYMid meet" height="424" width="2000" xmlns="http://www.w3.org/2000/svg" xmlns:xlink="http://www.w3.org/1999/xlink"><g id="tight-bounds" transform="matrix(1,0,0,1,0.2400000000000091,0.0429652894565038)"><svg viewBox="0 0 395.52 83.91406942108702" height="83.91406942108702" width="395.52"><g><svg viewBox="0 0 526.2396090934468 111.64772221276596" height="83.91406942108702" width="395.52"><g transform="matrix(1,0,0,1,0,15.430329191489363)"><svg viewBox="0 0 395.52 80.78706382978723" height="80.78706382978723" width="395.52"><g id="textblocktransform"><svg viewBox="0 0 395.52 80.78706382978723" height="80.78706382978723" width="395.52" id="textblock"><g><svg viewBox="0 0 395.52 80.78706382978723" height="80.78706382978723" width="395.52"><g transform="matrix(1,0,0,1,0,0)"><svg width="395.52" viewBox="5 -28.8 144.99 28.8" height="80.78706382978723" data-palette-color="#fff"><g class="wordmark-text-0" data-fill-palette-color="primary" id="text-0"><path d="M5-28.75L5-28.75 11.3-28.75 11.3-17.2 21-17.2 21-11.5 11.3-11.5 11.3 0 5 0 5-28.75ZM39.45-28.75L39.45-28.75 33.15-28.75 33.15-17.2 23.45-17.2 23.45-11.5 33.15-11.5 33.15 0 39.45 0 39.45-28.75ZM78.65-18.55L78.65-12.85 72.75-9.4 64.75-9.4 64.75-13.25 72.3-13.25 72.3-17.35 64.75-17.35 64.75-22.05 72.75-22.05 78.65-18.55ZM72.1-6.95L78.65-6.95 78.65-3.45 72.75 0 64.75 0 64.75-5.3 72.1-5.3 72.1-6.95ZM48.45-18.55L48.45-3.45 54.35 0 62.3 0 62.3-5.3 54.75-5.3 54.75-9.4 62.3-9.4 62.3-13.25 54.75-13.25 54.75-17.35 62.3-17.35 62.3-22.05 54.35-22.05 48.45-18.55ZM116.45-28.8L116.45 0 102.85 0 102.85-5.25 110.15-5.25 110.15-17.25 102.65-17.25 102.65-21.9 110.15-21.9 110.15-28.8 116.45-28.8ZM86.65-3.45L86.65-18.45 92.35-21.9 100.45-21.9 100.45-17.25 92.75-17.25 92.75-5.25 100.25-5.25 100.25 0 92.35 0 86.65-3.45ZM136.19-13.2L136.19-17.2 143.74-17.2 143.74-13.2 136.19-13.2ZM133.99-28.8L133.99 0 127.74 0 127.74-13.2 122.94-13.2 122.94-17.2 127.74-17.2 127.74-25.35 133.99-28.8ZM149.99-21.85L143.74-21.85 143.74-24.15 136.19-24.15 136.19-28.8 144.34-28.8 149.99-25.35 149.99-21.85Z" fill="#fff" data-fill-palette-color="primary"></path></g></svg></g></svg></g></svg></g></svg></g><g transform="matrix(1,0,0,1,414.5918868806808,0)"><svg viewBox="0 0 111.64772221276596 111.64772221276596" height="111.64772221276596" width="111.64772221276596"><g data-palette-color="#fff"><rect width="30.517044071489362" height="111.64772221276596" fill="#fff" stroke="transparent" data-fill-palette-color="accent" x="0" fill-opacity="1"></rect><rect width="30.517044071489362" height="111.64772221276596" fill="#fff" stroke="transparent" data-fill-palette-color="accent" x="37.21590740425532" fill-opacity="0.75"></rect><rect width="30.517044071489362" height="111.64772221276596" fill="#fff" stroke="transparent" data-fill-palette-color="accent" x="74.43181480851064" fill-opacity="0.5"></rect></g></svg></g></svg></g><defs></defs></svg><rect width="395.52" height="83.91406942108702" fill="none" stroke="none" visibility="hidden"></rect></g></svg></g></svg>